solid JSxCAD
facet normal 0 -1 0
outer loop
vertex 5 -8.66025 0
vertex 5 -8.66025 10
vertex -5 -8.66025 0
endloop
endfacet
facet normal 0 -1 0
outer loop
vertex -5 -8.66025 0
vertex 5 -8.66025 10
vertex -5 -8.66025 10
endloop
endfacet
facet normal -0.8660253028382761 -0.5000001748438417 0
outer loop
vertex -5 -8.66025 0
vertex -5 -8.66025 10
vertex -10 0 0
endloop
endfacet
facet normal -0.8660253028382761 -0.5000001748438417 0
outer loop
vertex -10 0 0
vertex -5 -8.66025 10
vertex -10 0 10
endloop
endfacet
facet normal -0.8660253028382761 0.5000001748438417 0
outer loop
vertex -10 0 0
vertex -10 0 10
vertex -5 8.66025 0
endloop
endfacet
facet normal -0.8660253028382761 0.5000001748438417 0
outer loop
vertex -5 8.66025 0
vertex -10 0 10
vertex -5 8.66025 10
endloop
endfacet
facet normal 0 1 0
outer loop
vertex -5 8.66025 0
vertex -5 8.66025 10
vertex 5 8.66025 0
endloop
endfacet
facet normal 0 1 0
outer loop
vertex 5 8.66025 0
vertex -5 8.66025 10
vertex 5 8.66025 10
endloop
endfacet
facet normal 0.8660253028382761 0.5000001748438417 0
outer loop
vertex 5 8.66025 0
vertex 5 8.66025 10
vertex 10 0 0
endloop
endfacet
facet normal 0.8660253028382761 0.5000001748438417 0
outer loop
vertex 10 0 0
vertex 5 8.66025 10
vertex 10 0 10
endloop
endfacet
facet normal 0.8660253028382761 -0.5000001748438417 0
outer loop
vertex 10 0 0
vertex 10 0 10
vertex 5 -8.66025 0
endloop
endfacet
facet normal 0.8660253028382761 -0.5000001748438417 0
outer loop
vertex 5 -8.66025 0
vertex 10 0 10
vertex 5 -8.66025 10
endloop
endfacet
facet normal 0 0 1
outer loop
vertex 10 0 10
vertex 5 8.66025 10
vertex -5 8.66025 10
endloop
endfacet
facet normal 0 0 1
outer loop
vertex 10 0 10
vertex -5 8.66025 10
vertex -10 0 10
endloop
endfacet
facet normal 0 0 1
outer loop
vertex 10 0 10
vertex -10 0 10
vertex -5 -8.66025 10
endloop
endfacet
facet normal 0 0 1
outer loop
vertex 10 0 10
vertex -5 -8.66025 10
vertex 5 -8.66025 10
endloop
endfacet
facet normal 0 0 -1
outer loop
vertex 5 -8.66025 0
vertex -5 -8.66025 0
vertex -10 0 0
endloop
endfacet
facet normal 0 0 -1
outer loop
vertex 5 -8.66025 0
vertex -10 0 0
vertex -5 8.66025 0
endloop
endfacet
facet normal 0 0 -1
outer loop
vertex 5 -8.66025 0
vertex -5 8.66025 0
vertex 5 8.66025 0
endloop
endfacet
facet normal 0 0 -1
outer loop
vertex 5 -8.66025 0
vertex 5 8.66025 0
vertex 10 0 0
endloop
endfacet
endsolid JSxCAD
