<svg viewBox="-250 -250 500 500" width="500" height="500" xmlns="http://www.w3.org/2000/svg"><path d="M117.71932709413248,-96.11741976673737L25.269189357510612,-133.36886070547843L-91.82125777066592,-78.7406026066151z" style="fill:rgb(82,237,172)"/><path d="M170.89604738044807,-21.586355336091515L128.69437945130701,-146.30133366662497L166.01144346776002,42.27586240298662z" style="fill:rgb(244,159,166)"/><path d="M117.71932709413248,-96.11741976673737L128.69437945130701,-146.30133366662497L25.269189357510612,-133.36886070547843zM117.71932709413248,-96.11741976673737L-91.82125777066592,-78.7406026066151L-130.04800487160094,-23.786191147164747z" style="fill:rgb(82,237,172)"/><path d="M166.01144346776002,42.27586240298662L128.69437945130701,-146.30133366662497L117.71932709413248,-96.11741976673737z" style="fill:rgb(244,159,166)"/><path d="M166.01144346776002,42.27586240298662L117.71932709413248,-96.11741976673737L30.696001633171708,111.8847795088885z" style="fill:rgb(166,95,244)"/><path d="M117.71932709413248,-96.11741976673737L-130.04800487160094,-23.786191147164747L-26.64318466130321,-26.485268362265206zM-130.04800487160094,-23.786191147164747L-199.47267643595976,25.19594887880634L-97.59897865957332,28.24494522254799z" style="fill:rgb(82,237,172)"/><path d="M30.696001633171708,111.8847795088885L117.71932709413248,-96.11741976673737L-26.64318466130321,-26.485268362265206z" style="fill:rgb(166,95,244)"/><path d="M-135.9312039716197,154.52824367891242L-97.59897865957332,28.24494522254799L-199.47267643595976,25.19594887880634z" style="fill:rgb(49,63,205)"/><path d="M-4.916095281111562,25.946439518376177L-32.61908636605636,172.16105844731047L30.696001633171708,111.8847795088885z" style="fill:rgb(217,127,217)"/><path d="M-130.04800487160094,-23.786191147164747L-97.59897865957332,28.24494522254799L-26.64318466130321,-26.485268362265206z" style="fill:rgb(82,237,172)"/><path d="M-32.61908636605636,172.16105844731047L-97.59897865957332,28.24494522254799L-135.9312039716197,154.52824367891242z" style="fill:rgb(49,63,205)"/><path d="M-4.916095281111562,25.946439518376177L-26.64318466130321,-26.485268362265206L-97.59897865957332,28.24494522254799zM-4.916095281111562,25.946439518376177L-97.59897865957332,28.24494522254799L-32.61908636605636,172.16105844731047z" style="fill:rgb(217,127,217)"/></svg>