<svg viewBox="-250 -250 500 500" width="500" height="500" xmlns="http://www.w3.org/2000/svg"><path d="M107.9423802651755,-88.1346630119571L0,-134.45639089202228L-140.94378307417992,-69.04815659233314z" style="fill:rgb(82,237,172)"/><path d="M173.83843212531903,0L122.72136272658058,-150.3022338597265L168.2751266438883,82.4377424933079z" style="fill:rgb(244,159,166)"/><path d="M107.9423802651755,-88.1346630119571L122.72136272658058,-150.3022338597265L0,-134.45639089202228zM107.9423802651755,-88.1346630119571L-140.94378307417992,-69.04815659233314L-195.60826397244216,0z" style="fill:rgb(82,237,172)"/><path d="M168.2751266438883,82.4377424933079L122.72136272658058,-150.3022338597265L107.9423802651755,-88.1346630119571z" style="fill:rgb(244,159,166)"/><path d="M-122.72136272658058,150.3022338597265L-74.53699590980581,0L-195.60826397244216,0zM0,170.38194546308276L-74.53699590980581,0L-122.72136272658058,150.3022338597265z" style="fill:rgb(49,63,205)"/><path d="M168.2751266438883,82.4377424933079L107.9423802651755,-88.1346630119571L0,170.38194546308276z" style="fill:rgb(166,95,244)"/><path d="M107.9423802651755,-88.1346630119571L-195.60826397244216,0L-74.53699590980581,0z" style="fill:rgb(82,237,172)"/><path d="M0,170.38194546308276L107.9423802651755,-88.1346630119571L-74.53699590980581,0z" style="fill:rgb(166,95,244)"/></svg>